<?xml version="1.0" encoding="UTF-8"?>
<svg id="Layer_2" data-name="Layer 2" xmlns="http://www.w3.org/2000/svg" viewBox="0 0 1161.99 49.95">
  <defs>
    <style>
      .cls-1 {
        fill: #fff;
        stroke-width: 0px;
      }
    </style>
  </defs>
  <g id="Layer_1-2" data-name="Layer 1">
    <path class="cls-1" d="M49.31,1.61h22.91l-24.65,23.5,24.65,23.5h-22.91l-13.18-13.74-13.18,13.74H0l24.65-23.5L0,1.61h22.94l13.18,13.71L49.31,1.61Z"/>
    <path class="cls-1" d="M96.99,48.61V16.61h-22V1.61h62v15h-22v32h-18Z"/>
    <path class="cls-1" d="M184.47,1.61c9.52-.1,17.59,8.04,17.45,17.76,0,3.53-.93,6.75-2.78,9.62-1.82,2.83-4.26,5-7.28,6.43l10.06,13.18h-17.56l-9.26-12h-17.12v12h-18V1.61h44.48ZM158.99,15.61v8h22.32c1.12,0,2.06-.38,2.83-1.15.87-.87,1.25-1.91,1.18-3.12-.13-2.11-1.96-3.73-4.07-3.73h-22.26Z"/>
    <path class="cls-1" d="M204.99,1.61h55v12h-36v6h36v11h-36v6h36v12h-55V1.61Z"/>
    <path class="cls-1" d="M262.99,1.61h23.47l18,23.5,18.03-23.5h22.5v47h-18v-25.07l-18.03,25.07h-9.93l-18.03-25.07v25.07h-18V1.61Z"/>
    <path class="cls-1" d="M347.99,1.61h55v12h-37v6h37v11h-37v6h37v12h-55V1.61Z"/>
    <path class="cls-1" d="M432.99,1.61h55v12h-37v6h37v11h-37v6h37v12h-55V1.61Z"/>
    <path class="cls-1" d="M523.61,19.3c13.07.66,31.44,1.57,31.41,13.32,0,13.39-15.34,16.56-31.79,16.56-16.42-.03-30.05-2.02-31.79-16.56h19.14c2.09,3.63,6.94,4.57,12.65,4.57s12.65-.94,12.65-4.57c0-2.06-5.68-2.37-13.04-2.72-13.07-.66-31.44-1.57-31.41-13.28C491.43,3.23,506.77.02,523.22.02c16.42.1,30.05,1.95,31.79,16.59h-19.14c-2.09-3.69-6.94-4.57-12.65-4.57s-12.65.84-12.65,4.57c0,2.06,5.68,2.34,13.04,2.68Z"/>
    <path class="cls-1" d="M602.6,1.61c9.54-.1,17.64,7.92,17.5,17.5.14,9.54-7.96,17.64-17.5,17.5h-26.61v12h-18V1.61h44.61ZM599.34,23.61c.96,0,1.9-.33,2.61-.97.93-.84,1.38-1.84,1.38-3.01s-.38-2.06-1.19-2.83c-.77-.8-1.71-1.19-2.79-1.19h-22.36v8h22.35Z"/>
    <path class="cls-1" d="M687.99,23.24v3.47c.07,17.99-14.59,23.2-32.48,23.24-17.92-.04-32.59-5.24-32.52-23.24v-3.47c-.07-18.03,14.59-23.2,32.52-23.24,17.92,0,32.48,5.24,32.48,23.24ZM668.99,24.37c.11-7.79-6.37-9.21-13.98-9.32-7.65.11-14.12,1.53-14.02,9.32v1.17c-.11,7.83,6.37,9.25,14.02,9.36,7.61-.11,14.09-1.53,13.98-9.36v-1.17Z"/>
    <path class="cls-1" d="M735.47,1.61c9.52-.1,17.59,8.04,17.45,17.76,0,3.53-.93,6.75-2.78,9.62-1.82,2.83-4.26,5-7.28,6.43l10.06,13.18h-17.56l-9.26-12h-17.12v12h-18V1.61h44.48ZM708.99,15.61v8h22.32c1.12,0,2.06-.38,2.83-1.15.87-.87,1.25-1.91,1.18-3.12-.13-2.11-1.96-3.73-4.07-3.73h-22.26Z"/>
    <path class="cls-1" d="M777.99,49.61V17.61h-22V2.61h62v15h-22v32h-18Z"/>
    <path class="cls-1" d="M853.48,19.3c13.07.66,31.44,1.57,31.41,13.32,0,13.39-15.34,16.56-31.79,16.56-16.42-.03-30.05-2.02-31.79-16.56h19.14c2.09,3.63,6.94,4.57,12.65,4.57s12.65-.94,12.65-4.57c0-2.06-5.68-2.37-13.04-2.72-13.07-.66-31.44-1.57-31.41-13.28C821.3,3.23,836.64.02,853.09.02c16.42.1,30.05,1.95,31.79,16.59h-19.14c-2.09-3.69-6.94-4.57-12.65-4.57s-12.65.84-12.65,4.57c0,2.06,5.68,2.34,13.04,2.68Z"/>
    <path class="cls-1" d="M954.48,31.55c-4.91,1.17-8.83,2.33-10.24,4.06h29.75v13h-59v-7.45c0-10.84,16-14.87,28.22-17.77,7.45-1.84,13.42-3.28,13.42-5.79,0-2.01-3.04-3.5-9.64-3.5-6.89.07-12.79,1.09-12.68,5.51h-18.58c0-16,12.5-19.07,30.48-19.07s29,4.27,29,15.86c0,9.89-11.62,12.93-20.73,15.15Z"/>
    <path class="cls-1" d="M1037.99,22.09v5.77c0,8.9-4.01,14.43-9.82,17.67-2.6,1.41-5.42,2.43-8.48,3.1-3.84.84-7.88,1.16-11.72,1.16s-7.88-.32-11.68-1.16c-9.85-2.15-18.3-7.92-18.3-20.76v-5.77c0-8.9,4.01-14.43,9.82-17.63,2.57-1.44,5.42-2.46,8.48-3.13,3.8-.84,7.85-1.16,11.68-1.16s7.88.32,11.72,1.16c9.85,2.15,18.3,7.95,18.3,20.76ZM1019.99,23.25c0-3.82-1.44-6.1-3.58-7.47-2.21-1.3-5.01-1.72-7.92-1.72-5.68,0-11.5,1.58-11.5,9.19v3.44c0,3.82,1.4,6.17,3.61,7.47s5.05,1.75,7.89,1.75c5.75,0,11.5-1.58,11.5-9.22v-3.44Z"/>
    <path class="cls-1" d="M1079.48,31.55c-4.91,1.17-8.83,2.33-10.24,4.06h29.75v13h-59v-7.45c0-10.84,16-14.87,28.22-17.77,7.45-1.84,13.42-3.28,13.42-5.79,0-2.01-3.04-3.5-9.64-3.5-6.89.07-12.79,1.09-12.68,5.51h-18.58c0-16,12.5-19.07,30.48-19.07s29,4.27,29,15.86c0,9.89-11.62,12.93-20.73,15.15Z"/>
    <path class="cls-1" d="M1154.99,1.61v25h7v14h-7v8h-18v-8h-35v-13.78l34.55-25.22h18.45ZM1135.99,26.61v-11.81l-16.14,11.81h16.14Z"/>
  </g>
</svg>